<svg width="21" height="20" viewBox="0 0 21 20" fill="none" xmlns="http://www.w3.org/2000/svg">
<path d="M19.0885 10.0001V15.0001C19.0885 16.841 17.5962 18.3334 15.7552 18.3334H5.75521C3.91426 18.3334 2.42188 16.841 2.42188 15.0001V5.00008C2.42188 3.15913 3.91426 1.66675 5.75521 1.66675H10.7552M13.8272 3.35237C13.8272 3.35237 13.8272 4.54429 15.0191 5.7362C16.211 6.92812 17.4029 6.92812 17.4029 6.92812M8.3841 13.3247L10.8871 12.9671C11.2482 12.9156 11.5828 12.7483 11.8407 12.4904L18.5948 5.7362C19.2531 5.07792 19.2531 4.01065 18.5948 3.35237L17.4029 2.16046C16.7446 1.50218 15.6774 1.50218 15.0191 2.16046L8.26491 8.91464C8.00702 9.17253 7.83973 9.50712 7.78815 9.86817L7.43057 12.3712C7.35111 12.9274 7.82788 13.4042 8.3841 13.3247Z" stroke="#64738B" stroke-width="1.5" stroke-linecap="round"/>
</svg>
