<svg width="32" height="32" viewBox="0 0 32 32" fill="none" xmlns="http://www.w3.org/2000/svg">
<path d="M0 8.00012C0 3.58184 3.58172 0.00012207 8 0.00012207H24C28.4183 0.00012207 32 3.58184 32 8.00012V24.0001C32 28.4184 28.4183 32.0001 24 32.0001H8C3.58172 32.0001 0 28.4184 0 24.0001V8.00012Z" fill="#F0ECFB"/>
<path d="M11 12.6668L14.151 14.7675C15.2707 15.5139 16.7293 15.5139 17.849 14.7675L21 12.6668M11 23.5001H21C22.8409 23.5001 24.3333 22.0077 24.3333 20.1668V11.8335C24.3333 9.99251 22.8409 8.50012 21 8.50012H11C9.15904 8.50012 7.66666 9.99251 7.66666 11.8335V20.1668C7.66666 22.0077 9.15904 23.5001 11 23.5001Z" stroke="#8C5AD3" stroke-width="1.5" stroke-linecap="round" stroke-linejoin="round"/>
</svg>
