<svg width="22" height="22" viewBox="0 0 22 22" fill="none" xmlns="http://www.w3.org/2000/svg">
<path d="M11 11.2002H10.25C10.25 11.523 10.4566 11.8096 10.7628 11.9117L11 11.2002ZM11.75 6.2002C11.75 5.78598 11.4142 5.4502 11 5.4502C10.5858 5.4502 10.25 5.78598 10.25 6.2002H11.75ZM13.7628 12.9117C14.1558 13.0427 14.5805 12.8303 14.7115 12.4374C14.8425 12.0444 14.6301 11.6197 14.2372 11.4887L13.7628 12.9117ZM11.75 11.2002V6.2002H10.25V11.2002H11.75ZM10.7628 11.9117L13.7628 12.9117L14.2372 11.4887L11.2372 10.4887L10.7628 11.9117ZM20.25 11.2002C20.25 16.3088 16.1086 20.4502 11 20.4502V21.9502C16.9371 21.9502 21.75 17.1373 21.75 11.2002H20.25ZM11 20.4502C5.89137 20.4502 1.75 16.3088 1.75 11.2002H0.25C0.25 17.1373 5.06294 21.9502 11 21.9502V20.4502ZM1.75 11.2002C1.75 6.09156 5.89137 1.9502 11 1.9502V0.450195C5.06294 0.450195 0.25 5.26313 0.25 11.2002H1.75ZM11 1.9502C16.1086 1.9502 20.25 6.09156 20.25 11.2002H21.75C21.75 5.26313 16.9371 0.450195 11 0.450195V1.9502Z" fill="white"/>
</svg>
